<svg xmlns="http://www.w3.org/2000/svg" width="58.097" height="48.015" viewBox="0 0 58.097 48.015">
  <path id="Icon_awesome-quote-right" data-name="Icon awesome-quote-right" d="M52.65,2.25H38.126A5.3,5.3,0,0,0,32.68,7.394V21.113a5.3,5.3,0,0,0,5.447,5.144H47.2v6.859a7.076,7.076,0,0,1-7.262,6.859h-.908a2.645,2.645,0,0,0-2.723,2.572v5.144a2.645,2.645,0,0,0,2.723,2.572h.908c10.031,0,18.155-7.674,18.155-17.148V7.394A5.3,5.3,0,0,0,52.65,2.25Zm-32.68,0H5.447A5.3,5.3,0,0,0,0,7.394V21.113a5.3,5.3,0,0,0,5.447,5.144h9.078v6.859a7.076,7.076,0,0,1-7.262,6.859H6.354a2.645,2.645,0,0,0-2.723,2.572v5.144a2.645,2.645,0,0,0,2.723,2.572h.908c10.031,0,18.155-7.674,18.155-17.148V7.394A5.3,5.3,0,0,0,19.971,2.25Z" transform="translate(0 -2.25)" fill="#5e6a7b"/>
</svg>
